<svg width="477" height="477" viewBox="0 0 477 477" fill="none" xmlns="http://www.w3.org/2000/svg">
<g clip-path="url(#clip0_154_4759)">
<path d="M327.118 208.203C324.928 224.972 315.378 240.824 302.889 251.956C294.257 259.656 284.396 265.816 275.594 273.318C262.879 284.154 252.297 298.366 249.415 315.136C248.963 317.792 248.666 320.462 248.624 323.146C248.61 323.627 248.313 325.802 248.695 326.184C246.406 324.432 245.954 320.222 245.7 317.608C245.219 312.48 245.445 307.309 246.095 302.195C247.112 294.17 249.415 286.329 253.131 279.124C256.889 271.792 262.045 265.222 268.078 259.628C279.112 249.385 292.392 241.883 303.567 231.754C312.934 223.263 321.594 212.695 325.437 200.447C325.521 200.192 326.341 197.593 326.242 197.55C326.454 197.635 326.68 197.762 326.878 197.918C327.499 201.266 327.584 204.657 327.118 208.203Z" fill="url(#paint0_linear_154_4759)"/>
<path d="M374.347 267.073C368.216 275.691 358.849 281.455 348.903 284.888C340.723 287.714 332.176 289.381 323.94 292.093C320.408 293.252 316.946 294.608 313.57 296.148C305.701 299.736 298.298 304.3 291.559 309.697C288.182 312.409 284.989 315.319 281.98 318.413C280.483 319.967 279.155 321.719 277.615 323.203C276.612 324.177 275.51 325.025 274.535 326.028C274.408 325.901 274.45 325.76 274.605 325.378C275.764 322.722 276.852 320.01 278.123 317.41C283.633 306.221 290.697 296.176 300.389 288.152C312.708 277.937 326.878 272.865 342.927 272.865C349.779 272.88 356.674 272.682 363.398 270.972C367.185 270.012 370.731 268.528 374.051 266.48C374.249 266.692 374.333 266.875 374.347 267.073Z" fill="url(#paint1_linear_154_4759)"/>
<path d="M326.242 166.978C325.522 170.143 324.589 173.279 323.473 176.331C322.371 179.382 321.184 182.49 319.574 185.33C319.291 185.824 318.924 186.347 318.373 186.488C318.246 186.517 318.119 186.531 317.992 186.503C318.345 184.652 318.684 182.773 319.023 180.908C320.845 170.665 322.173 159.886 319.178 149.714C317.158 142.904 313.231 136.688 308.074 131.814C301.971 126.064 294.229 122.151 288.662 115.906C285.469 112.346 283.068 108.009 282.22 103.318C281.132 97.2716 283.209 91.3944 286.896 86.6757C286.953 86.6899 287.023 86.7323 287.08 86.7605L287.094 86.7464C287.574 88.032 287.207 89.3741 287.391 90.6456C288.366 97.3705 292.293 102.584 297.28 107.274C302.578 112.261 309.444 115.242 314.799 120.046C319.758 124.51 323.629 130.203 325.903 136.49C329.435 146.267 328.531 157.046 326.242 166.978Z" fill="url(#paint2_linear_154_4759)"/>
<path d="M269.887 65.8368C269.971 67.6734 269.632 69.5101 269.166 71.2902C266.383 81.8719 262.102 92.7502 258.146 101.834C257.567 103.162 256.719 104.335 255.646 105.324C245.94 114.168 230.781 122.277 222.191 128.112C207.71 138.03 193.893 148.866 181.023 160.804C177.731 163.855 174.496 166.978 171.543 170.368C168.548 173.801 165.807 177.164 165.567 181.911C165.285 173.377 170.413 163.855 175.202 157.003C180.486 149.473 187.211 143.017 194.388 137.309C207.159 127.151 221.457 118.915 233.423 107.825C240.006 101.721 245.813 94.6151 249.811 86.5623C253.032 80.0918 255.688 72.0813 255.038 64.7914C254.883 62.9406 254.459 61.0617 253.414 59.5217C252.043 57.5015 249.754 56.2865 247.438 55.5518C244.683 54.6759 241.815 54.3792 238.918 54.0967C244.64 52.5709 250.376 51.0592 256.112 49.5334C257.892 49.0672 259.898 48.6292 261.452 49.6182C262.328 50.1691 262.893 51.0874 263.416 51.9775C264.772 54.2662 266.086 56.5831 267.358 58.9284C268.53 61.0617 269.887 63.2938 269.887 65.8368Z" fill="url(#paint3_linear_154_4759)"/>
<path d="M288.408 215.959C288.479 215.874 288.521 215.803 288.592 215.719C263.925 231.528 235.966 235.455 235.966 235.455C235.542 235.596 235.132 235.766 234.751 236.034C223.321 244.666 214.294 255.361 207.668 268.048C205.309 272.569 202.992 277.104 200.18 281.342C199.008 283.136 198.824 283.15 197.242 281.709C193.314 278.135 191.011 273.614 189.683 268.528C188.525 264.064 187.409 259.614 186.165 255.177C184.823 250.332 183.75 245.387 181.574 240.81C180.698 238.987 179.455 237.447 177.265 237.348C175.004 237.249 174.129 239.001 173.352 240.711C171.388 245.034 169.495 249.385 167.531 253.722C163.985 261.549 160.1 269.206 154.293 275.649C144.248 286.795 132.861 296.402 120.33 304.625C111.119 310.671 101.272 315.404 90.4356 317.792C89.3054 318.046 88.1328 318.103 86.9884 318.314C86.0843 318.484 86.6635 318.724 87.0026 318.922C135.588 327.441 172.024 289.169 173.041 288.095C173.055 288.081 173.055 288.081 173.055 288.081C173.267 287.742 173.479 287.643 173.705 288.081C173.705 288.081 200.872 338.842 241.984 273.784C241.9 272.978 241.871 272.103 240.854 271.792C238.904 271.085 237.251 272.018 235.627 272.851C233.267 274.066 230.965 275.423 228.591 276.609C226.938 277.457 225.215 278.064 223.293 277.923C221.81 277.81 221.132 277.118 221.047 275.62C220.962 274.165 221.499 272.865 222.064 271.58C225.751 263.357 231.6 256.802 238.212 250.897C246.18 243.762 255.137 237.984 264.08 232.177C270.819 227.812 277.657 223.602 284.142 218.841C285.399 217.993 286.6 217.103 287.871 216.284C288.069 216.199 288.239 216.072 288.408 215.959Z" fill="url(#paint4_linear_154_4759)"/>
<path d="M309.105 182.335C300.035 196.463 287.165 207.779 271.978 215.126C255.787 222.952 237.605 226.286 219.634 225.919C209.66 225.721 199.573 224.365 190.446 220.353C183.368 217.245 176.898 212.413 172.419 206.07C167.46 199.034 165.864 190.374 165.581 181.911C165.737 183.493 166.09 185.047 166.697 186.63C167.672 189.116 169.141 191.391 170.837 193.439C172.306 195.177 174.001 196.802 175.796 198.271C183.792 204.968 193.314 208.401 203.401 210.449C209.773 211.763 216.244 212.385 222.728 212.385C243.99 212.385 263.868 207.398 281.782 195.559C291.177 189.371 298.99 181.643 305.107 172.163C305.333 171.739 305.644 171.344 306.025 170.807C306.916 172.827 307.339 174.805 307.848 176.684C308.357 178.549 308.795 180.442 309.105 182.335Z" fill="url(#paint5_linear_154_4759)"/>
<path d="M331.696 220.607C330.947 227.021 328.969 233.238 326.299 239.115C321.369 250.021 314.022 259.134 305.432 267.328C298.171 274.265 290.57 280.834 282.263 286.457C278.703 288.746 275.369 291.486 272.246 294.326C265.281 300.627 259.404 307.973 254.544 315.984C253.499 317.736 252.482 319.502 251.521 321.31C250.716 322.822 250.037 325.04 248.695 326.17C248.314 325.789 248.611 323.613 248.625 323.133C248.681 320.448 248.978 317.778 249.416 315.122C252.284 298.352 262.865 284.14 275.595 273.304C284.396 265.802 294.243 259.656 302.889 251.943C315.378 240.796 324.929 224.959 327.119 208.189C327.571 204.643 327.486 201.252 326.878 197.918C326.921 197.932 326.949 197.975 326.977 197.989C328.192 198.949 329.026 200.857 329.577 202.1C332.176 207.864 332.402 214.419 331.696 220.607Z" fill="url(#paint6_radial_154_4759)"/>
<path d="M319.023 180.922C318.684 182.787 318.345 184.652 317.992 186.517C317.61 186.474 317.243 186.248 316.989 185.938C316.664 185.542 316.494 185.033 316.353 184.525C315.618 181.939 315.392 179.227 315.039 176.557C314.191 170.129 312.68 163.602 310.122 157.597C307.297 150.971 303.016 144.84 297.181 140.616C291.318 136.349 284.269 134.018 278.759 129.243C273.927 125.061 270.678 119.071 269.901 112.727C268.785 103.587 272.995 94.333 280.115 88.6113C281.104 87.8201 282.164 87.0855 283.364 86.6758C284.495 86.2943 285.78 86.2237 286.882 86.6899C283.195 91.4086 281.118 97.2857 282.206 103.332C283.054 108.023 285.455 112.36 288.648 115.92C294.215 122.165 301.957 126.078 308.06 131.828C313.216 136.702 317.158 142.918 319.164 149.728C322.173 159.9 320.845 170.68 319.023 180.922Z" fill="url(#paint7_radial_154_4759)"/>
<path d="M309.36 190.599C308.583 196.971 305.135 201.972 300.728 206.38C299.315 207.765 297.831 209.05 296.32 210.265C270.183 230.652 235.966 235.455 235.966 235.455C230.612 236.345 217.232 236.303 210.423 236.034C184.894 235.144 161.032 219.915 156.78 193.99C153.658 174.96 162.615 155.633 174.962 141.562C184.131 131.121 194.755 122.179 205.393 113.363C206.439 112.515 206.792 112.007 205.747 110.777C200.957 105.14 196.352 99.334 191.605 93.6546C189.245 90.8714 188.581 87.8198 189.316 84.3303C190.206 80.3462 191.209 76.4046 191.901 72.3923C192.636 67.942 195.193 65.5827 199.432 64.4949C209.547 61.9801 219.606 59.2111 229.679 56.5409C232.759 55.7215 235.839 54.9162 238.919 54.0827C241.801 54.3652 244.683 54.6619 247.438 55.5378C249.755 56.2725 252.043 57.4875 253.414 59.5078C254.459 61.0477 254.869 62.9267 255.038 64.7774C255.688 72.0674 253.018 80.0919 249.811 86.5483C245.813 94.6153 240.006 101.722 233.423 107.811C221.457 118.901 207.145 127.137 194.388 137.295C187.211 143.003 180.486 149.459 175.202 156.989C170.413 163.827 165.285 173.349 165.567 181.897C165.85 190.359 167.46 199.02 172.405 206.055C176.884 212.413 183.354 217.23 190.432 220.338C199.559 224.351 209.66 225.707 219.62 225.905C237.591 226.272 255.787 222.952 271.963 215.111C287.151 207.765 300.021 196.448 309.091 182.32C309.558 185.047 309.727 187.816 309.36 190.599Z" fill="url(#paint8_radial_154_4759)"/>
<path d="M241.631 277.683C239.215 289.522 234.935 300.542 227.588 310.219C222.658 316.718 217.063 322.51 209.914 326.593C204.39 329.758 198.909 329.489 193.569 326.07C186.928 321.804 182.535 315.715 179.441 308.609C176.587 302.039 174.849 295.145 173.733 288.095C173.733 288.095 200.915 338.856 242.013 273.798C242.14 275.126 241.9 276.411 241.631 277.683Z" fill="url(#paint9_radial_154_4759)"/>
<path d="M173.055 288.123C172.772 288.476 172.659 289.281 172.504 289.705C172.264 290.327 172.024 290.948 171.769 291.556C171.275 292.743 170.752 293.901 170.201 295.045C164.818 306.164 156.624 314.853 147.879 323.414C145.181 326.07 142.454 328.74 139.304 330.831C134.514 334.01 129.132 335.013 123.452 334.25C118.479 333.586 113.845 332.625 109.155 330.732C105.468 329.249 101.922 327.44 98.4038 325.604C94.5046 323.569 90.5912 321.549 87.0168 318.95C135.616 327.469 172.038 289.211 173.055 288.123Z" fill="url(#paint10_radial_154_4759)"/>
<path d="M374.164 268.26C372.921 275.521 368.838 281.144 363.85 286.244C349.624 300.754 332.43 309.908 312.736 314.585C305.672 316.266 298.594 317.848 291.643 320.052C286.981 321.521 282.418 323.301 277.897 325.152C276.908 325.562 275.905 325.915 274.916 326.297C274.732 326.198 274.605 326.141 274.535 326.071C275.509 325.067 276.611 324.22 277.615 323.245C279.154 321.762 280.468 319.996 281.98 318.456C284.989 315.362 288.182 312.451 291.559 309.739C298.298 304.342 305.701 299.765 313.57 296.19C316.96 294.65 320.422 293.294 323.939 292.136C332.176 289.423 340.723 287.756 348.903 284.93C358.849 281.497 368.216 275.733 374.347 267.115C374.39 267.469 374.22 267.864 374.164 268.26Z" fill="url(#paint11_radial_154_4759)"/>
<path d="M124.268 416.634V406.309H126.075L129.803 416.261H129.258L132.958 406.309H134.793V416.634H133.632V406.926H133.79L130.19 416.634H128.785L125.186 407.012H125.343V416.634H124.268ZM144.537 416.777C143.82 416.777 143.16 416.648 142.558 416.39C141.965 416.123 141.449 415.75 141.009 415.272C140.569 414.784 140.225 414.215 139.977 413.565C139.738 412.915 139.618 412.203 139.618 411.429C139.618 410.406 139.828 409.497 140.249 408.704C140.67 407.91 141.248 407.289 141.984 406.84C142.73 406.39 143.576 406.166 144.522 406.166C145.488 406.166 146.339 406.39 147.075 406.84C147.821 407.289 148.404 407.91 148.824 408.704C149.245 409.497 149.455 410.41 149.455 411.443C149.455 412.217 149.331 412.93 149.083 413.58C148.844 414.23 148.504 414.794 148.064 415.272C147.625 415.75 147.104 416.123 146.501 416.39C145.899 416.648 145.244 416.777 144.537 416.777ZM144.522 415.716C145.259 415.716 145.904 415.535 146.458 415.171C147.022 414.799 147.462 414.287 147.778 413.637C148.093 412.987 148.251 412.246 148.251 411.414C148.251 410.592 148.093 409.866 147.778 409.235C147.472 408.604 147.037 408.111 146.473 407.758C145.918 407.404 145.268 407.227 144.522 407.227C143.777 407.227 143.127 407.404 142.572 407.758C142.018 408.111 141.588 408.604 141.282 409.235C140.976 409.856 140.823 410.583 140.823 411.414C140.823 412.256 140.976 413.001 141.282 413.651C141.597 414.292 142.032 414.799 142.587 415.171C143.141 415.535 143.786 415.716 144.522 415.716ZM154.278 416.634V406.309H155.454V416.634H154.278ZM161.19 416.634V406.309H162.366V416.634H161.19ZM154.881 410.74H161.707V411.773H154.881V410.74ZM166.991 416.634L170.978 406.309H172.01L168.124 416.634H166.991ZM175.194 416.634L171.308 406.309H172.412L176.398 416.634H175.194ZM168.97 412.461H174.362V413.494H168.97V412.461ZM181.012 416.634V406.309H182.819L186.547 416.261H186.002L189.702 406.309H191.538V416.634H190.376V406.926H190.534L186.935 416.634H185.529L181.93 407.012H182.088V416.634H181.012ZM196.879 416.634V406.309H198.686L202.414 416.261H201.869L205.569 406.309H207.404V416.634H206.243V406.926H206.4L202.801 416.634H201.396L197.796 407.012H197.954V416.634H196.879ZM212.028 416.634L216.015 406.309H217.047L213.161 416.634H212.028ZM220.231 416.634L216.345 406.309H217.449L221.435 416.634H220.231ZM214.007 412.461H219.399V413.494H214.007V412.461ZM226.752 416.634V415.602H229.519C230.38 415.602 231.121 415.429 231.742 415.085C232.363 414.732 232.841 414.239 233.176 413.608C233.511 412.977 233.678 412.246 233.678 411.414C233.678 410.592 233.511 409.875 233.176 409.263C232.841 408.651 232.363 408.178 231.742 407.844C231.13 407.509 230.389 407.342 229.519 407.342H226.752V406.309H229.519C230.6 406.309 231.541 406.524 232.344 406.954C233.147 407.375 233.769 407.973 234.209 408.747C234.658 409.512 234.883 410.41 234.883 411.443C234.883 412.475 234.658 413.384 234.209 414.168C233.759 414.942 233.133 415.549 232.33 415.989C231.537 416.419 230.604 416.634 229.534 416.634H226.752ZM226.049 416.634V406.309H227.225V416.634H226.049ZM244.349 416.777C243.298 416.777 242.385 416.562 241.61 416.132C240.836 415.702 240.238 415.1 239.818 414.325C239.397 413.541 239.187 412.619 239.187 411.558C239.187 410.496 239.392 409.564 239.803 408.761C240.224 407.949 240.802 407.313 241.538 406.854C242.284 406.395 243.14 406.166 244.105 406.166C244.861 406.166 245.544 406.309 246.156 406.596C246.777 406.883 247.284 407.28 247.676 407.786C248.078 408.293 248.321 408.881 248.407 409.55H247.231C247.136 408.843 246.806 408.279 246.242 407.858C245.688 407.437 244.99 407.227 244.148 407.227C243.393 407.227 242.733 407.409 242.169 407.772C241.605 408.126 241.166 408.623 240.85 409.263C240.544 409.904 240.391 410.659 240.391 411.529C240.391 412.399 240.549 413.149 240.864 413.78C241.19 414.402 241.653 414.88 242.255 415.214C242.867 415.549 243.599 415.716 244.45 415.716C245.033 415.716 245.554 415.635 246.013 415.473C246.471 415.3 246.887 415.038 247.26 414.684L248.436 415.114C247.91 415.668 247.303 416.084 246.615 416.362C245.936 416.639 245.181 416.777 244.349 416.777ZM247.26 415.114V411.773L247.705 412.217H244.435V411.185H248.436V415.114H247.26ZM257.941 416.777C257.224 416.777 256.565 416.648 255.962 416.39C255.37 416.123 254.853 415.75 254.414 415.272C253.974 414.784 253.63 414.215 253.381 413.565C253.142 412.915 253.023 412.203 253.023 411.429C253.023 410.406 253.233 409.497 253.654 408.704C254.074 407.91 254.653 407.289 255.389 406.84C256.134 406.39 256.981 406.166 257.927 406.166C258.893 406.166 259.743 406.39 260.48 406.84C261.225 407.289 261.808 407.91 262.229 408.704C262.65 409.497 262.86 410.41 262.86 411.443C262.86 412.217 262.736 412.93 262.487 413.58C262.248 414.23 261.909 414.794 261.469 415.272C261.029 415.75 260.508 416.123 259.906 416.39C259.304 416.648 258.649 416.777 257.941 416.777ZM257.927 415.716C258.663 415.716 259.308 415.535 259.863 415.171C260.427 414.799 260.867 414.287 261.182 413.637C261.498 412.987 261.655 412.246 261.655 411.414C261.655 410.592 261.498 409.866 261.182 409.235C260.876 408.604 260.441 408.111 259.877 407.758C259.323 407.404 258.673 407.227 257.927 407.227C257.181 407.227 256.531 407.404 255.977 407.758C255.422 408.111 254.992 408.604 254.686 409.235C254.38 409.856 254.227 410.583 254.227 411.414C254.227 412.256 254.38 413.001 254.686 413.651C255.002 414.292 255.437 414.799 255.991 415.171C256.546 415.535 257.191 415.716 257.927 415.716ZM267.683 416.634V406.309H268.859V416.634H267.683ZM268.285 416.634V415.602H274.165V416.634H268.285ZM279.687 416.634V415.602H282.455C283.315 415.602 284.056 415.429 284.677 415.085C285.299 414.732 285.777 414.239 286.111 413.608C286.446 412.977 286.613 412.246 286.613 411.414C286.613 410.592 286.446 409.875 286.111 409.263C285.777 408.651 285.299 408.178 284.677 407.844C284.065 407.509 283.324 407.342 282.455 407.342H279.687V406.309H282.455C283.535 406.309 284.476 406.524 285.28 406.954C286.083 407.375 286.704 407.973 287.144 408.747C287.593 409.512 287.818 410.41 287.818 411.443C287.818 412.475 287.593 413.384 287.144 414.168C286.694 414.942 286.068 415.549 285.265 415.989C284.472 416.419 283.54 416.634 282.469 416.634H279.687ZM278.984 416.634V406.309H280.16V416.634H278.984ZM292.495 416.634V415.157H293.972V416.634H292.495ZM303.538 416.777C302.83 416.777 302.175 416.648 301.573 416.39C300.98 416.123 300.464 415.755 300.024 415.286C299.585 414.808 299.245 414.249 299.006 413.608C298.767 412.958 298.648 412.246 298.648 411.472C298.648 410.697 298.767 409.99 299.006 409.349C299.245 408.699 299.58 408.14 300.01 407.671C300.45 407.193 300.966 406.825 301.559 406.567C302.161 406.3 302.816 406.166 303.523 406.166C304.298 406.166 304.991 406.324 305.603 406.639C306.224 406.954 306.731 407.399 307.123 407.973C307.524 408.546 307.773 409.215 307.868 409.98H306.693C306.578 409.129 306.238 408.46 305.674 407.973C305.12 407.476 304.408 407.227 303.538 407.227C302.802 407.227 302.156 407.409 301.602 407.772C301.047 408.126 300.617 408.623 300.311 409.263C300.005 409.894 299.852 410.63 299.852 411.472C299.852 412.313 300.005 413.054 300.311 413.694C300.617 414.325 301.047 414.822 301.602 415.186C302.156 415.539 302.797 415.716 303.523 415.716C304.412 415.716 305.139 415.468 305.703 414.971C306.277 414.473 306.616 413.804 306.721 412.963H307.897C307.802 413.728 307.553 414.397 307.151 414.971C306.759 415.544 306.253 415.989 305.631 416.304C305.02 416.62 304.322 416.777 303.538 416.777ZM317.066 416.777C316.349 416.777 315.69 416.648 315.087 416.39C314.495 416.123 313.978 415.75 313.539 415.272C313.099 414.784 312.755 414.215 312.506 413.565C312.267 412.915 312.148 412.203 312.148 411.429C312.148 410.406 312.358 409.497 312.779 408.704C313.199 407.91 313.778 407.289 314.514 406.84C315.259 406.39 316.105 406.166 317.052 406.166C318.018 406.166 318.868 406.39 319.604 406.84C320.35 407.289 320.933 407.91 321.354 408.704C321.775 409.497 321.985 410.41 321.985 411.443C321.985 412.217 321.861 412.93 321.612 413.58C321.373 414.23 321.034 414.794 320.594 415.272C320.154 415.75 319.633 416.123 319.031 416.39C318.429 416.648 317.774 416.777 317.066 416.777ZM317.052 415.716C317.788 415.716 318.433 415.535 318.988 415.171C319.552 414.799 319.992 414.287 320.307 413.637C320.623 412.987 320.78 412.246 320.78 411.414C320.78 410.592 320.623 409.866 320.307 409.235C320.001 408.604 319.566 408.111 319.002 407.758C318.448 407.404 317.798 407.227 317.052 407.227C316.306 407.227 315.656 407.404 315.102 407.758C314.547 408.111 314.117 408.604 313.811 409.235C313.505 409.856 313.352 410.583 313.352 411.414C313.352 412.256 313.505 413.001 313.811 413.651C314.127 414.292 314.562 414.799 315.116 415.171C315.671 415.535 316.316 415.716 317.052 415.716ZM326.808 416.634V406.309H328.615L332.343 416.261H331.798L335.498 406.309H337.334V416.634H336.172V406.926H336.33L332.73 416.634H331.325L327.726 407.012H327.883V416.634H326.808ZM183.734 432.763C182.529 432.763 181.569 432.467 180.852 431.874C180.144 431.281 179.728 430.435 179.604 429.336H180.751C180.856 430.129 181.157 430.727 181.655 431.128C182.152 431.53 182.84 431.731 183.72 431.731C184.465 431.731 185.024 431.592 185.397 431.315C185.78 431.028 185.971 430.612 185.971 430.067C185.971 429.599 185.842 429.226 185.584 428.949C185.326 428.671 184.924 428.442 184.379 428.26L182.644 427.658C181.764 427.352 181.114 426.984 180.694 426.554C180.273 426.114 180.063 425.56 180.063 424.89C180.063 424.336 180.201 423.858 180.479 423.456C180.756 423.045 181.148 422.725 181.655 422.496C182.161 422.266 182.749 422.151 183.418 422.151C184.451 422.151 185.278 422.424 185.899 422.969C186.521 423.504 186.879 424.269 186.975 425.263H185.828C185.703 424.546 185.445 424.02 185.053 423.686C184.671 423.351 184.116 423.184 183.39 423.184C182.701 423.184 182.166 423.323 181.784 423.6C181.401 423.877 181.21 424.269 181.21 424.776C181.21 425.206 181.344 425.55 181.612 425.808C181.879 426.066 182.295 426.291 182.859 426.482L184.709 427.127C185.512 427.405 186.114 427.782 186.516 428.26C186.917 428.729 187.118 429.326 187.118 430.053C187.118 430.913 186.822 431.582 186.229 432.06C185.646 432.529 184.814 432.763 183.734 432.763ZM191.744 432.634V425.321H192.891V432.634H191.744ZM191.658 423.657V422.309H192.977V423.657H191.658ZM198.06 432.634V425.321H199.135V427.041H199.207V432.634H198.06ZM203.294 432.634V427.844C203.294 427.29 203.155 426.874 202.878 426.597C202.601 426.32 202.19 426.181 201.645 426.181C201.167 426.181 200.742 426.286 200.369 426.496C200.005 426.707 199.719 426.998 199.508 427.371C199.308 427.744 199.207 428.179 199.207 428.676L199.021 426.941C199.269 426.396 199.647 425.966 200.154 425.65C200.67 425.335 201.253 425.177 201.903 425.177C202.668 425.177 203.28 425.397 203.739 425.837C204.207 426.267 204.441 426.836 204.441 427.543V432.634H203.294ZM212.412 432.777C211.743 432.777 211.145 432.615 210.619 432.29C210.103 431.955 209.692 431.501 209.386 430.928C209.09 430.344 208.942 429.685 208.942 428.949C208.942 428.213 209.09 427.562 209.386 426.998C209.692 426.434 210.103 425.99 210.619 425.665C211.145 425.34 211.738 425.177 212.398 425.177C212.943 425.177 213.43 425.282 213.86 425.493C214.3 425.703 214.659 426.004 214.936 426.396C215.223 426.779 215.404 427.228 215.481 427.744H214.42C214.324 427.276 214.104 426.893 213.76 426.597C213.416 426.301 212.971 426.152 212.426 426.152C211.958 426.152 211.552 426.267 211.207 426.496C210.863 426.726 210.596 427.051 210.404 427.472C210.213 427.892 210.118 428.385 210.118 428.949C210.118 429.513 210.213 430.01 210.404 430.44C210.596 430.87 210.863 431.205 211.207 431.444C211.561 431.683 211.972 431.802 212.441 431.802C212.966 431.802 213.406 431.659 213.76 431.372C214.114 431.076 214.338 430.693 214.434 430.225H215.495C215.409 430.732 215.218 431.181 214.921 431.573C214.635 431.955 214.276 432.252 213.846 432.462C213.416 432.672 212.938 432.777 212.412 432.777ZM223.029 432.777C222.331 432.777 221.715 432.615 221.179 432.29C220.644 431.955 220.223 431.501 219.918 430.928C219.612 430.354 219.459 429.694 219.459 428.949C219.459 428.203 219.607 427.548 219.903 426.984C220.209 426.41 220.635 425.966 221.179 425.65C221.724 425.335 222.351 425.177 223.058 425.177C223.737 425.177 224.325 425.325 224.822 425.622C225.329 425.918 225.716 426.334 225.983 426.869C226.261 427.405 226.399 428.036 226.399 428.762C226.399 428.858 226.395 428.949 226.385 429.035C226.385 429.121 226.375 429.216 226.356 429.321H220.319V428.361H225.654L225.281 428.891C225.281 428.012 225.085 427.338 224.693 426.869C224.31 426.391 223.765 426.152 223.058 426.152C222.331 426.152 221.744 426.406 221.294 426.912C220.854 427.409 220.635 428.083 220.635 428.934C220.635 429.804 220.854 430.502 221.294 431.028C221.744 431.544 222.341 431.802 223.087 431.802C223.555 431.802 223.966 431.702 224.32 431.501C224.674 431.291 224.932 430.995 225.094 430.612H226.184C225.945 431.281 225.544 431.812 224.98 432.204C224.425 432.586 223.775 432.777 223.029 432.777ZM244.56 432.634V423.485L244.861 423.557C244.746 423.815 244.527 424.073 244.202 424.331C243.876 424.589 243.499 424.814 243.069 425.005C242.648 425.196 242.213 425.325 241.764 425.392V424.288C242.213 424.212 242.643 424.078 243.054 423.887C243.465 423.695 243.829 423.466 244.144 423.198C244.469 422.921 244.708 422.625 244.861 422.309H245.707V432.634H244.56ZM253.936 432.777C253.334 432.777 252.793 432.663 252.315 432.433C251.837 432.194 251.45 431.845 251.154 431.386C250.858 430.918 250.666 430.335 250.58 429.637H251.842C251.938 430.383 252.172 430.923 252.545 431.257C252.918 431.582 253.391 431.745 253.965 431.745C254.385 431.745 254.748 431.659 255.054 431.487C255.36 431.315 255.614 431.052 255.814 430.698C256.015 430.344 256.163 429.895 256.259 429.35C256.355 428.796 256.402 428.141 256.402 427.386V426.453L256.732 426.496C256.646 426.936 256.455 427.328 256.159 427.672C255.862 428.007 255.494 428.27 255.054 428.461C254.615 428.643 254.141 428.734 253.635 428.734C253.004 428.734 252.449 428.595 251.971 428.318C251.493 428.031 251.116 427.639 250.838 427.142C250.571 426.645 250.437 426.081 250.437 425.45C250.437 424.78 250.585 424.202 250.881 423.715C251.178 423.227 251.589 422.849 252.115 422.582C252.65 422.304 253.262 422.166 253.95 422.166C255.174 422.166 256.101 422.61 256.732 423.499C257.373 424.388 257.693 425.693 257.693 427.414C257.693 428.561 257.545 429.537 257.248 430.34C256.962 431.133 256.536 431.74 255.972 432.161C255.418 432.572 254.739 432.777 253.936 432.777ZM253.936 427.73C254.596 427.73 255.14 427.543 255.571 427.17C256.01 426.798 256.23 426.262 256.23 425.564C256.23 425.096 256.125 424.685 255.915 424.331C255.714 423.977 255.437 423.7 255.083 423.499C254.729 423.299 254.328 423.198 253.879 423.198C253.238 423.198 252.717 423.404 252.315 423.815C251.923 424.216 251.728 424.771 251.728 425.478C251.728 426.157 251.919 426.702 252.301 427.113C252.693 427.524 253.238 427.73 253.936 427.73ZM265.559 432.777C264.957 432.777 264.417 432.663 263.939 432.433C263.461 432.194 263.074 431.845 262.777 431.386C262.481 430.918 262.29 430.335 262.204 429.637H263.466C263.561 430.383 263.795 430.923 264.168 431.257C264.541 431.582 265.014 431.745 265.588 431.745C266.009 431.745 266.372 431.659 266.678 431.487C266.984 431.315 267.237 431.052 267.438 430.698C267.639 430.344 267.787 429.895 267.882 429.35C267.978 428.796 268.026 428.141 268.026 427.386V426.453L268.356 426.496C268.27 426.936 268.078 427.328 267.782 427.672C267.486 428.007 267.118 428.27 266.678 428.461C266.238 428.643 265.765 428.734 265.258 428.734C264.627 428.734 264.073 428.595 263.595 428.318C263.117 428.031 262.739 427.639 262.462 427.142C262.194 426.645 262.06 426.081 262.06 425.45C262.06 424.78 262.208 424.202 262.505 423.715C262.801 423.227 263.212 422.849 263.738 422.582C264.273 422.304 264.885 422.166 265.574 422.166C266.797 422.166 267.725 422.61 268.356 423.499C268.996 424.388 269.316 425.693 269.316 427.414C269.316 428.561 269.168 429.537 268.872 430.34C268.585 431.133 268.16 431.74 267.596 432.161C267.041 432.572 266.362 432.777 265.559 432.777ZM265.559 427.73C266.219 427.73 266.764 427.543 267.194 427.17C267.634 426.798 267.854 426.262 267.854 425.564C267.854 425.096 267.748 424.685 267.538 424.331C267.337 423.977 267.06 423.7 266.706 423.499C266.353 423.299 265.951 423.198 265.502 423.198C264.861 423.198 264.34 423.404 263.939 423.815C263.547 424.216 263.351 424.771 263.351 425.478C263.351 426.157 263.542 426.702 263.924 427.113C264.316 427.524 264.861 427.73 265.559 427.73ZM277.828 432.777C277.015 432.777 276.303 432.553 275.691 432.103C275.089 431.645 274.616 431.014 274.272 430.211C273.937 429.398 273.77 428.471 273.77 427.429C273.77 426.387 273.937 425.474 274.272 424.69C274.606 423.896 275.079 423.28 275.691 422.84C276.303 422.39 277.015 422.166 277.828 422.166C278.64 422.166 279.348 422.39 279.95 422.84C280.562 423.28 281.035 423.896 281.37 424.69C281.714 425.474 281.886 426.387 281.886 427.429C281.886 428.48 281.714 429.408 281.37 430.211C281.035 431.014 280.562 431.645 279.95 432.103C279.348 432.553 278.64 432.777 277.828 432.777ZM277.828 431.745C278.411 431.745 278.908 431.573 279.319 431.229C279.73 430.875 280.046 430.378 280.266 429.737C280.486 429.087 280.596 428.313 280.596 427.414C280.596 426.525 280.486 425.765 280.266 425.134C280.055 424.503 279.745 424.025 279.334 423.7C278.922 423.366 278.421 423.198 277.828 423.198C277.235 423.198 276.733 423.366 276.322 423.7C275.911 424.035 275.596 424.518 275.376 425.149C275.165 425.77 275.06 426.525 275.06 427.414C275.06 428.313 275.17 429.087 275.39 429.737C275.61 430.387 275.925 430.885 276.336 431.229C276.748 431.573 277.245 431.745 277.828 431.745Z" fill="#CA9E67"/>
</g>
<defs>
<linearGradient id="paint0_linear_154_4759" x1="245.449" y1="261.866" x2="327.414" y2="261.866" gradientUnits="userSpaceOnUse">
<stop stop-color="#E8CE9D"/>
<stop offset="0.5" stop-color="#CE9D30"/>
<stop offset="1" stop-color="#C47E0F"/>
</linearGradient>
<linearGradient id="paint1_linear_154_4759" x1="274.466" y1="296.269" x2="374.346" y2="296.269" gradientUnits="userSpaceOnUse">
<stop stop-color="#E8CE9D"/>
<stop offset="0.5" stop-color="#CE9D30"/>
<stop offset="1" stop-color="#C47E0F"/>
</linearGradient>
<linearGradient id="paint2_linear_154_4759" x1="281.921" y1="136.606" x2="328.26" y2="136.606" gradientUnits="userSpaceOnUse">
<stop stop-color="#E8CE9D"/>
<stop offset="0.5" stop-color="#CE9D30"/>
<stop offset="1" stop-color="#C47E0F"/>
</linearGradient>
<linearGradient id="paint3_linear_154_4759" x1="165.554" y1="115.455" x2="269.898" y2="115.455" gradientUnits="userSpaceOnUse">
<stop stop-color="#E8CE9D"/>
<stop offset="0.5" stop-color="#CE9D30"/>
<stop offset="1" stop-color="#C47E0F"/>
</linearGradient>
<linearGradient id="paint4_linear_154_4759" x1="86.5166" y1="267.956" x2="288.594" y2="267.956" gradientUnits="userSpaceOnUse">
<stop stop-color="#E8CE9D"/>
<stop offset="0.5" stop-color="#CE9D30"/>
<stop offset="1" stop-color="#C47E0F"/>
</linearGradient>
<linearGradient id="paint5_linear_154_4759" x1="165.566" y1="198.366" x2="309.105" y2="198.366" gradientUnits="userSpaceOnUse">
<stop stop-color="#E8CE9D"/>
<stop offset="0.5" stop-color="#CE9D30"/>
<stop offset="1" stop-color="#C47E0F"/>
</linearGradient>
<radialGradient id="paint6_radial_154_4759" cx="0" cy="0" r="1" gradientUnits="userSpaceOnUse" gradientTransform="translate(290.278 262.051) scale(54.113 54.113)">
<stop stop-color="#FFFAD2"/>
<stop offset="0.1171" stop-color="#FEF3C0"/>
<stop offset="0.3487" stop-color="#F3DE92"/>
<stop offset="0.3708" stop-color="#F2DC8E"/>
<stop offset="0.6854" stop-color="#F0BF00"/>
<stop offset="1" stop-color="#C9961A"/>
</radialGradient>
<radialGradient id="paint7_radial_154_4759" cx="0" cy="0" r="1" gradientUnits="userSpaceOnUse" gradientTransform="translate(295.338 136.436) scale(39.7714)">
<stop stop-color="#FFFAD2"/>
<stop offset="0.1171" stop-color="#FEF3C0"/>
<stop offset="0.3487" stop-color="#F3DE92"/>
<stop offset="0.3708" stop-color="#F2DC8E"/>
<stop offset="0.6854" stop-color="#F0BF00"/>
<stop offset="1" stop-color="#C9961A"/>
</radialGradient>
<radialGradient id="paint8_radial_154_4759" cx="0" cy="0" r="1" gradientUnits="userSpaceOnUse" gradientTransform="translate(232.859 145.145) scale(84.186 84.186)">
<stop stop-color="#FFFAD2"/>
<stop offset="0.1171" stop-color="#FEF3C0"/>
<stop offset="0.3487" stop-color="#F3DE92"/>
<stop offset="0.3708" stop-color="#F2DC8E"/>
<stop offset="0.6854" stop-color="#F0BF00"/>
<stop offset="1" stop-color="#C9961A"/>
</radialGradient>
<radialGradient id="paint9_radial_154_4759" cx="0" cy="0" r="1" gradientUnits="userSpaceOnUse" gradientTransform="translate(207.887 301.31) scale(31.0115 31.0114)">
<stop stop-color="#FFFAD2"/>
<stop offset="0.1171" stop-color="#FEF3C0"/>
<stop offset="0.3487" stop-color="#F3DE92"/>
<stop offset="0.3708" stop-color="#F2DC8E"/>
<stop offset="0.6854" stop-color="#F0BF00"/>
<stop offset="1" stop-color="#C9961A"/>
</radialGradient>
<radialGradient id="paint10_radial_154_4759" cx="0" cy="0" r="1" gradientUnits="userSpaceOnUse" gradientTransform="translate(130.041 311.311) scale(34.5581 34.5581)">
<stop stop-color="#FFFAD2"/>
<stop offset="0.1171" stop-color="#FEF3C0"/>
<stop offset="0.3487" stop-color="#F3DE92"/>
<stop offset="0.3708" stop-color="#F2DC8E"/>
<stop offset="0.6854" stop-color="#F0BF00"/>
<stop offset="1" stop-color="#C9961A"/>
</radialGradient>
<radialGradient id="paint11_radial_154_4759" cx="0" cy="0" r="1" gradientUnits="userSpaceOnUse" gradientTransform="translate(324.449 296.671) scale(41.0282 41.0282)">
<stop stop-color="#FFFAD2"/>
<stop offset="0.1171" stop-color="#FEF3C0"/>
<stop offset="0.3487" stop-color="#F3DE92"/>
<stop offset="0.3708" stop-color="#F2DC8E"/>
<stop offset="0.6854" stop-color="#F0BF00"/>
<stop offset="1" stop-color="#C9961A"/>
</radialGradient>
<clipPath id="clip0_154_4759">
<rect width="475.773" height="475.773" fill="white" transform="translate(0.508545 0.43985)"/>
</clipPath>
</defs>
</svg>
